<svg width="52" height="48" viewBox="0 0 52 48" fill="none" xmlns="http://www.w3.org/2000/svg">
<path fill-rule="evenodd" clip-rule="evenodd" d="M18.4548 2C18.4548 0.895429 19.3503 0 20.4548 0H31.7454C32.85 0 33.7454 0.895431 33.7454 2V7.36475C35.0702 7.93181 36.3142 8.6371 37.4565 9.46105L42.4893 6.72461C43.4597 6.19698 44.7143 6.53264 45.2916 7.47433L50.8463 16.535C51.4236 17.4767 51.105 18.6678 50.1346 19.1954L44.874 22.0558C44.9299 22.6168 44.9585 23.1853 44.9585 23.7601C44.9585 24.4929 44.912 25.2154 44.8217 25.9253L50.1345 28.814C51.1049 29.3416 51.4236 30.5328 50.8463 31.4745L45.2916 40.5351C44.7143 41.4768 43.4596 41.8125 42.4892 41.2848L37.0638 38.3349C36.0309 39.0413 34.9199 39.6527 33.7454 40.1554V46.0002C33.7454 47.1048 32.85 48.0002 31.7454 48.0002H20.4548C19.3503 48.0002 18.4548 47.1048 18.4548 46.0002V40.3652C17.1436 39.847 15.9068 39.1951 14.7634 38.4276L9.50852 41.2848C8.53812 41.8124 7.28345 41.4768 6.70614 40.5351L1.15146 31.4744C0.574147 30.5327 0.892809 29.3416 1.86321 28.814L6.88942 26.0811C6.78555 25.3213 6.73199 24.5466 6.73199 23.7601C6.73199 23.1312 6.76624 22.5099 6.83306 21.8977L1.86315 19.1954C0.892745 18.6678 0.574083 17.4767 1.15139 16.535L6.70607 7.47435C7.28338 6.53265 8.53805 6.19699 9.50846 6.72462L14.3667 9.36619C15.6189 8.47917 16.9905 7.73369 18.4548 7.15498V2ZM25.8453 32.1601C30.7715 32.1601 34.7649 28.3993 34.7649 23.7601C34.7649 19.1209 30.7715 15.3601 25.8453 15.3601C20.9192 15.3601 16.9258 19.1209 16.9258 23.7601C16.9258 28.3993 20.9192 32.1601 25.8453 32.1601Z" fill="black"/>
</svg>
